<?xml version="1.0" standalone="no"?>
<!DOCTYPE svg PUBLIC "-//W3C//DTD SVG 20010904//EN"
 "http://www.w3.org/TR/2001/REC-SVG-20010904/DTD/svg10.dtd">
<svg version="1.0" xmlns="http://www.w3.org/2000/svg"
 width="626.000000pt" height="417.000000pt" viewBox="0 0 626.000000 417.000000"
 preserveAspectRatio="xMidYMid meet">
<metadata>
Created by potrace 1.16, written by Peter Selinger 2001-2019
</metadata>
<g transform="translate(0.000000,417.000000) scale(0.100000,-0.100000)"
fill="#000000" stroke="none">
<path d="M3570 2682 c0 -5 -10 -8 -22 -8 -17 1 -24 -5 -26 -21 -3 -18 2 -23
18 -23 16 0 20 -4 16 -15 -3 -10 1 -15 12 -16 18 0 199 0 218 1 18 0 22 21 12
58 l-9 32 -109 0 c-61 0 -110 -4 -110 -8z"/>
<path d="M5040 2614 c13 -4 15 -35 12 -222 -2 -119 -6 -219 -8 -222 -3 -2
-141 -3 -306 -1 l-300 3 28 -39 c19 -25 11 -20 -23 17 -28 30 -62 61 -76 69
-15 8 -23 19 -20 25 3 6 3 8 -2 4 -4 -4 -29 4 -56 18 -105 53 -265 72 -369 44
-54 -14 -149 -57 -168 -76 -7 -8 -17 -14 -22 -14 -5 0 -36 -28 -70 -61 -144
-147 -186 -354 -115 -574 6 -19 6 -19 -6 -1 -23 37 -39 122 -39 214 0 113 30
213 90 302 22 33 40 61 40 64 0 4 -164 6 -365 6 -237 0 -365 -4 -365 -10 0 -5
-9 -10 -19 -10 -23 0 -28 -6 -35 -45 -6 -34 7 -61 34 -70 20 -6 20 -15 20
-360 l0 -353 28 -5 c15 -3 196 -5 402 -6 l375 -2 53 -36 c29 -20 50 -38 47
-41 -2 -3 -184 -5 -402 -4 -219 0 -414 -3 -433 -8 -25 -6 2 -9 100 -11 l135
-3 -132 -5 c-72 -3 -134 -9 -137 -12 -3 -3 5 -12 19 -19 14 -8 25 -22 25 -34
0 -12 9 -34 19 -50 11 -17 18 -33 16 -36 -7 -11 68 -77 113 -100 23 -12 45
-26 48 -31 3 -5 19 -9 35 -9 17 0 38 -4 47 -9 10 -5 60 -12 112 -16 130 -8
199 -15 216 -22 8 -3 14 0 14 7 0 6 5 8 13 3 40 -26 637 -47 877 -30 52 4 142
10 200 14 58 3 110 7 115 8 6 1 24 3 41 3 23 2 47 17 94 62 34 33 66 58 70 55
11 -7 33 41 26 54 -4 6 -2 11 3 11 6 0 11 15 12 33 2 52 12 77 39 90 29 15 27
-15 31 462 2 378 4 393 34 401 12 3 28 17 34 30 6 14 7 23 2 20 -5 -3 -11 7
-14 23 -4 17 -15 32 -26 36 -31 9 -37 52 -40 255 -2 173 -3 186 -23 203 -11 9
-30 16 -42 16 -12 -1 -15 -3 -6 -5z m-875 -356 c215 -48 375 -252 375 -477 0
-140 -46 -249 -144 -346 -99 -98 -212 -145 -346 -145 -214 0 -402 135 -469
337 -28 85 -29 216 -1 307 75 243 326 382 585 324z m859 -954 c11 -4 16 -19
16 -45 l0 -40 -355 2 c-195 0 -367 4 -383 8 l-27 8 42 26 c23 14 44 31 48 37
7 11 630 15 659 4z"/>
<path d="M3924 2241 c-85 -24 -149 -64 -217 -134 -66 -68 -100 -129 -124 -220
-18 -73 -13 -185 13 -262 17 -48 70 -145 80 -145 3 0 2 6 -2 13 -4 6 18 -12
50 -41 64 -58 130 -97 148 -86 7 5 8 3 3 -6 -6 -10 -4 -12 8 -7 9 3 17 1 20
-6 2 -6 22 -11 45 -11 23 -1 42 -4 42 -8 0 -12 108 -9 115 2 3 6 18 7 32 4 15
-4 24 -3 20 2 -3 5 9 10 26 10 17 1 33 6 35 13 2 6 7 9 12 6 5 -3 15 2 23 10
9 8 27 19 42 25 16 6 23 14 19 22 -4 7 -3 8 4 4 17 -10 146 120 138 140 -3 8
-2 13 3 10 11 -7 39 67 52 142 8 43 8 80 0 131 -45 287 -318 469 -587 392z"/>
<path d="M3857 2563 c-4 -3 -7 -62 -7 -131 0 -124 0 -124 23 -118 12 4 54 12
93 18 80 13 231 -4 271 -30 12 -7 27 -11 33 -7 6 4 10 58 10 141 l0 134 -208
0 c-115 0 -212 -3 -215 -7z"/>
<path d="M4330 2430 l0 -140 310 0 310 0 0 79 c0 43 3 106 6 140 l7 61 -317 0
-316 0 0 -140z"/>
</g>
</svg>
